<mxfile host="app.diagrams.net" modified="2023-09-03T09:43:05.277Z" agent="Mozilla/5.0 (Windows NT 10.0; Win64; x64) AppleWebKit/537.36 (KHTML, like Gecko) Chrome/116.0.0.0 Safari/537.36" etag="HVINePIkXDpXKxpQgPXJ" version="21.3.5" type="github">
  <diagram name="Page-1" id="zoyLQBMpjC1JwWB8Ujel">
    <mxGraphModel dx="1434" dy="760" grid="1" gridSize="10" guides="1" tooltips="1" connect="1" arrows="1" fold="1" page="1" pageScale="1" pageWidth="900" pageHeight="1600" math="0" shadow="0">
      <root>
        <mxCell id="0" />
        <mxCell id="1" parent="0" />
        <mxCell id="myBEYGF3AN6niEe-FZO3-14" style="edgeStyle=orthogonalEdgeStyle;rounded=0;orthogonalLoop=1;jettySize=auto;html=1;exitX=1;exitY=0.75;exitDx=0;exitDy=0;entryX=0;entryY=0.75;entryDx=0;entryDy=0;fontSize=16;" edge="1" parent="1" source="myBEYGF3AN6niEe-FZO3-2" target="myBEYGF3AN6niEe-FZO3-3">
          <mxGeometry relative="1" as="geometry" />
        </mxCell>
        <mxCell id="myBEYGF3AN6niEe-FZO3-17" style="edgeStyle=orthogonalEdgeStyle;rounded=0;orthogonalLoop=1;jettySize=auto;html=1;exitX=1;exitY=0.5;exitDx=0;exitDy=0;entryX=0;entryY=0.5;entryDx=0;entryDy=0;fontSize=16;" edge="1" parent="1" source="myBEYGF3AN6niEe-FZO3-2" target="myBEYGF3AN6niEe-FZO3-3">
          <mxGeometry relative="1" as="geometry" />
        </mxCell>
        <mxCell id="myBEYGF3AN6niEe-FZO3-2" value="&lt;div style=&quot;font-size: 16px;&quot;&gt;数据库&lt;/div&gt;" style="whiteSpace=wrap;html=1;aspect=fixed;align=center;horizontal=1;fontStyle=0;verticalAlign=top;fontSize=16;" vertex="1" parent="1">
          <mxGeometry x="80" y="280" width="190" height="190" as="geometry" />
        </mxCell>
        <mxCell id="myBEYGF3AN6niEe-FZO3-13" style="edgeStyle=orthogonalEdgeStyle;rounded=0;orthogonalLoop=1;jettySize=auto;html=1;exitX=1;exitY=0.75;exitDx=0;exitDy=0;entryX=0;entryY=0.75;entryDx=0;entryDy=0;fontSize=16;" edge="1" parent="1" source="myBEYGF3AN6niEe-FZO3-3" target="myBEYGF3AN6niEe-FZO3-4">
          <mxGeometry relative="1" as="geometry" />
        </mxCell>
        <mxCell id="myBEYGF3AN6niEe-FZO3-16" style="edgeStyle=orthogonalEdgeStyle;rounded=0;orthogonalLoop=1;jettySize=auto;html=1;exitX=0;exitY=0.25;exitDx=0;exitDy=0;entryX=1;entryY=0.25;entryDx=0;entryDy=0;fontSize=16;" edge="1" parent="1" source="myBEYGF3AN6niEe-FZO3-3" target="myBEYGF3AN6niEe-FZO3-2">
          <mxGeometry relative="1" as="geometry" />
        </mxCell>
        <mxCell id="myBEYGF3AN6niEe-FZO3-3" value="" style="rounded=0;whiteSpace=wrap;html=1;fontSize=16;" vertex="1" parent="1">
          <mxGeometry x="360" y="235" width="170" height="280" as="geometry" />
        </mxCell>
        <mxCell id="myBEYGF3AN6niEe-FZO3-12" style="edgeStyle=orthogonalEdgeStyle;rounded=0;orthogonalLoop=1;jettySize=auto;html=1;exitX=0;exitY=0.25;exitDx=0;exitDy=0;entryX=1;entryY=0.25;entryDx=0;entryDy=0;fontSize=16;" edge="1" parent="1" source="myBEYGF3AN6niEe-FZO3-4" target="myBEYGF3AN6niEe-FZO3-3">
          <mxGeometry relative="1" as="geometry" />
        </mxCell>
        <mxCell id="myBEYGF3AN6niEe-FZO3-4" value="前端工具" style="rounded=0;whiteSpace=wrap;html=1;fontSize=16;" vertex="1" parent="1">
          <mxGeometry x="600" y="235" width="170" height="280" as="geometry" />
        </mxCell>
        <mxCell id="myBEYGF3AN6niEe-FZO3-5" value="MOLAP 服务器" style="whiteSpace=wrap;html=1;aspect=fixed;fontSize=16;" vertex="1" parent="1">
          <mxGeometry x="405" y="280" width="80" height="80" as="geometry" />
        </mxCell>
        <mxCell id="myBEYGF3AN6niEe-FZO3-6" value="元数据请求服务器" style="whiteSpace=wrap;html=1;aspect=fixed;fontSize=16;" vertex="1" parent="1">
          <mxGeometry x="405" y="400" width="80" height="80" as="geometry" />
        </mxCell>
        <mxCell id="myBEYGF3AN6niEe-FZO3-7" value="" style="whiteSpace=wrap;html=1;aspect=fixed;fontSize=16;" vertex="1" parent="1">
          <mxGeometry x="645" y="340" width="80" height="80" as="geometry" />
        </mxCell>
        <mxCell id="myBEYGF3AN6niEe-FZO3-8" value="" style="strokeWidth=2;html=1;shape=mxgraph.flowchart.database;whiteSpace=wrap;fontSize=16;" vertex="1" parent="1">
          <mxGeometry x="180" y="345" width="60" height="60" as="geometry" />
        </mxCell>
        <mxCell id="myBEYGF3AN6niEe-FZO3-9" value="" style="strokeWidth=2;html=1;shape=mxgraph.flowchart.database;whiteSpace=wrap;fontSize=16;" vertex="1" parent="1">
          <mxGeometry x="100" y="345" width="60" height="60" as="geometry" />
        </mxCell>
        <mxCell id="myBEYGF3AN6niEe-FZO3-18" value="信息请求" style="text;html=1;align=center;verticalAlign=middle;resizable=0;points=[];autosize=1;strokeColor=none;fillColor=none;fontSize=16;" vertex="1" parent="1">
          <mxGeometry x="525" y="268" width="90" height="30" as="geometry" />
        </mxCell>
        <mxCell id="myBEYGF3AN6niEe-FZO3-19" value="结果集" style="text;html=1;align=center;verticalAlign=middle;resizable=0;points=[];autosize=1;strokeColor=none;fillColor=none;fontSize=16;" vertex="1" parent="1">
          <mxGeometry x="535" y="420" width="70" height="30" as="geometry" />
        </mxCell>
        <mxCell id="myBEYGF3AN6niEe-FZO3-20" value="SQL" style="text;html=1;align=center;verticalAlign=middle;resizable=0;points=[];autosize=1;strokeColor=none;fillColor=none;fontSize=16;" vertex="1" parent="1">
          <mxGeometry x="280" y="348" width="60" height="30" as="geometry" />
        </mxCell>
        <mxCell id="myBEYGF3AN6niEe-FZO3-21" value="载入" style="text;html=1;align=center;verticalAlign=middle;resizable=0;points=[];autosize=1;strokeColor=none;fillColor=none;fontSize=16;" vertex="1" parent="1">
          <mxGeometry x="280" y="278" width="60" height="30" as="geometry" />
        </mxCell>
        <mxCell id="myBEYGF3AN6niEe-FZO3-22" value="结果" style="text;html=1;align=center;verticalAlign=middle;resizable=0;points=[];autosize=1;strokeColor=none;fillColor=none;fontSize=16;" vertex="1" parent="1">
          <mxGeometry x="280" y="438" width="60" height="30" as="geometry" />
        </mxCell>
      </root>
    </mxGraphModel>
  </diagram>
</mxfile>
